<?xml version="1.0" encoding="UTF-8"?>
<svg xmlns="http://www.w3.org/2000/svg" xmlns:xlink="http://www.w3.org/1999/xlink" width="375pt" height="374.999991pt" viewBox="0 0 375 374.999991" version="1.2">
<defs>
<clipPath id="clip1">
  <path d="M 24 34.191406 L 141 34.191406 L 141 305 L 24 305 Z M 24 34.191406 "/>
</clipPath>
<clipPath id="clip2">
  <path d="M 234 71 L 351 71 L 351 340.941406 L 234 340.941406 Z M 234 71 "/>
</clipPath>
</defs>
<g id="surface1">
<path style=" stroke:none;fill-rule:nonzero;fill:rgb(22.349548%,66.268921%,87.838745%);fill-opacity:1;" d="M 205.457031 292.320312 L 202.539062 288.425781 C 198.097656 282.484375 190.667969 272.539062 187.542969 272.539062 C 184.417969 272.539062 176.980469 282.488281 172.539062 288.433594 L 169.628906 292.320312 L 167.015625 291.804688 C 158.761719 290.171875 150.695312 287.53125 143.035156 283.957031 L 140.628906 282.832031 L 140.542969 277.335938 C 140.453125 270.609375 140.28125 258.085938 137.992188 256.414062 C 137.972656 256.398438 137.46875 256.046875 135.734375 256.046875 C 131.292969 256.046875 124.082031 258.28125 117.113281 260.4375 L 112.0625 261.992188 L 110.253906 260.042969 C 104.496094 253.839844 99.488281 246.953125 95.371094 239.566406 L 94.074219 237.238281 L 97.015625 233.035156 C 100.941406 227.4375 108.257812 217.019531 107.332031 214.164062 C 106.449219 211.558594 94.808594 207.59375 88.554688 205.464844 L 83.128906 203.601562 L 82.808594 200.960938 C 82.269531 196.539062 81.996094 192.195312 81.996094 188.042969 C 81.996094 183.890625 82.269531 179.542969 82.808594 175.121094 L 83.128906 172.480469 L 88.554688 170.617188 C 94.808594 168.488281 106.449219 164.523438 107.332031 161.917969 C 108.257812 159.066406 100.945312 148.648438 97.015625 143.054688 L 94.070312 138.84375 L 95.371094 136.515625 C 99.492188 129.132812 104.496094 122.242188 110.253906 116.039062 L 112.0625 114.089844 L 117.121094 115.648438 C 124.089844 117.808594 131.292969 120.039062 135.734375 120.039062 C 137.46875 120.039062 137.972656 119.683594 137.992188 119.667969 C 140.28125 118 140.453125 105.472656 140.542969 98.742188 L 140.628906 93.25 L 143.039062 92.128906 C 150.699219 88.550781 158.765625 85.910156 167.015625 84.28125 L 169.628906 83.761719 L 172.539062 87.648438 C 176.980469 93.59375 184.417969 103.546875 187.542969 103.546875 C 190.667969 103.546875 198.101562 93.597656 202.542969 87.652344 L 205.457031 83.761719 L 208.070312 84.28125 C 216.320312 85.914062 224.390625 88.554688 232.046875 92.128906 L 234.453125 93.25 L 234.539062 98.753906 C 234.632812 105.476562 234.800781 118 237.089844 119.667969 C 237.109375 119.683594 237.617188 120.035156 239.351562 120.035156 C 243.792969 120.035156 250.992188 117.804688 257.957031 115.652344 L 263.023438 114.089844 L 264.832031 116.039062 C 270.585938 122.242188 275.59375 129.128906 279.714844 136.515625 L 281.011719 138.84375 L 278.074219 143.046875 C 274.144531 148.644531 266.824219 159.0625 267.75 161.917969 C 268.636719 164.523438 280.277344 168.488281 286.527344 170.617188 L 291.957031 172.480469 L 292.277344 175.121094 C 292.8125 179.546875 293.085938 183.894531 293.085938 188.042969 C 293.085938 192.1875 292.8125 196.535156 292.277344 200.960938 L 291.957031 203.601562 L 286.527344 205.464844 C 280.273438 207.59375 268.636719 211.5625 267.75 214.164062 C 266.824219 217.019531 274.140625 227.4375 278.070312 233.035156 L 281.011719 237.238281 L 279.714844 239.566406 C 275.59375 246.953125 270.585938 253.84375 264.832031 260.042969 L 263.023438 261.992188 L 257.960938 260.433594 C 250.996094 258.277344 243.792969 256.046875 239.351562 256.046875 C 237.617188 256.046875 237.113281 256.398438 237.09375 256.414062 C 234.804688 258.082031 234.632812 270.605469 234.542969 277.335938 L 234.457031 282.828125 L 232.050781 283.953125 C 224.394531 287.527344 216.328125 290.167969 208.074219 291.800781 Z M 149.03125 277.332031 C 154.53125 279.71875 160.242188 281.589844 166.066406 282.910156 C 173.667969 272.734375 180.273438 264.035156 187.542969 264.035156 C 194.8125 264.035156 201.414062 272.734375 209.019531 282.910156 C 214.84375 281.589844 220.550781 279.71875 226.050781 277.332031 L 226.054688 277.222656 C 226.226562 264.605469 226.371094 253.714844 232.097656 249.542969 C 233.9375 248.199219 236.3125 247.542969 239.351562 247.542969 C 245.054688 247.542969 252.503906 249.847656 260.390625 252.289062 C 264.359375 247.773438 267.910156 242.890625 270.980469 237.71875 C 263.699219 227.351562 257.457031 218.394531 259.675781 211.542969 C 261.832031 204.898438 272.007812 201.429688 283.796875 197.414062 L 284.140625 197.300781 C 284.449219 194.125 284.597656 191.074219 284.597656 188.046875 C 284.597656 185.019531 284.449219 181.96875 284.140625 178.792969 L 283.796875 178.679688 C 272.007812 174.664062 261.828125 171.195312 259.679688 164.550781 C 257.457031 157.703125 263.699219 148.742188 270.984375 138.375 C 267.910156 133.203125 264.363281 128.320312 260.394531 123.804688 C 252.503906 126.246094 245.054688 128.550781 239.351562 128.550781 C 236.3125 128.550781 233.941406 127.894531 232.097656 126.550781 C 226.375 122.378906 226.226562 111.488281 226.054688 98.875 L 226.054688 98.761719 C 220.554688 96.375 214.84375 94.503906 209.019531 93.183594 C 201.414062 103.359375 194.8125 112.058594 187.542969 112.058594 C 180.269531 112.058594 173.671875 103.359375 166.066406 93.183594 C 160.242188 94.503906 154.535156 96.375 149.03125 98.761719 L 149.03125 98.867188 C 148.859375 111.484375 148.710938 122.378906 142.988281 126.554688 C 141.148438 127.898438 138.773438 128.550781 135.734375 128.550781 C 130.03125 128.550781 122.582031 126.246094 114.691406 123.808594 C 110.722656 128.324219 107.171875 133.207031 104.101562 138.375 C 111.382812 148.746094 117.625 157.703125 115.40625 164.554688 C 113.253906 171.195312 103.074219 174.664062 91.285156 178.679688 L 90.945312 178.796875 C 90.636719 181.96875 90.484375 185.015625 90.484375 188.046875 C 90.484375 191.082031 90.636719 194.128906 90.945312 197.300781 L 91.285156 197.417969 C 103.074219 201.429688 113.253906 204.898438 115.40625 211.542969 C 117.625 218.394531 111.382812 227.351562 104.101562 237.722656 C 107.171875 242.890625 110.722656 247.773438 114.691406 252.289062 C 122.582031 249.847656 130.03125 247.546875 135.734375 247.546875 C 138.773438 247.546875 141.144531 248.199219 142.984375 249.542969 C 148.710938 253.714844 148.859375 264.609375 149.027344 277.222656 Z M 149.03125 277.332031 "/>
<path style=" stroke:none;fill-rule:nonzero;fill:rgb(23.529053%,23.529053%,23.139954%);fill-opacity:1;" d="M 187.539062 257.675781 C 149.164062 257.675781 117.945312 226.382812 117.945312 187.921875 C 117.945312 149.464844 149.167969 118.171875 187.539062 118.171875 C 225.917969 118.171875 257.140625 149.464844 257.140625 187.921875 C 257.140625 226.382812 225.917969 257.675781 187.539062 257.675781 Z M 187.539062 126.679688 C 153.84375 126.679688 126.429688 154.152344 126.429688 187.921875 C 126.429688 221.695312 153.84375 249.167969 187.539062 249.167969 C 221.238281 249.167969 248.65625 221.695312 248.65625 187.921875 C 248.65625 154.152344 221.238281 126.679688 187.539062 126.679688 Z M 187.539062 126.679688 "/>
<path style=" stroke:none;fill-rule:nonzero;fill:rgb(23.529053%,23.529053%,23.139954%);fill-opacity:1;" d="M 187.542969 198.71875 C 181.605469 198.71875 176.78125 193.875 176.78125 187.925781 C 176.78125 181.972656 181.609375 177.128906 187.542969 177.128906 C 193.480469 177.128906 198.308594 181.972656 198.308594 187.925781 C 198.308594 193.875 193.480469 198.71875 187.542969 198.71875 Z M 187.542969 185.636719 C 186.285156 185.636719 185.265625 186.664062 185.265625 187.925781 C 185.265625 189.1875 186.289062 190.214844 187.542969 190.214844 C 188.800781 190.214844 189.824219 189.1875 189.824219 187.925781 C 189.824219 186.664062 188.800781 185.636719 187.542969 185.636719 Z M 187.542969 185.636719 "/>
<path style=" stroke:none;fill-rule:nonzero;fill:rgb(23.529053%,23.529053%,23.139954%);fill-opacity:1;" d="M 187.542969 185.636719 C 185.199219 185.636719 183.300781 183.734375 183.300781 181.382812 L 183.300781 157.171875 C 183.300781 154.824219 185.199219 152.921875 187.542969 152.921875 C 189.886719 152.921875 191.785156 154.824219 191.785156 157.171875 L 191.785156 181.382812 C 191.785156 183.730469 189.886719 185.636719 187.542969 185.636719 Z M 187.542969 185.636719 "/>
<path style=" stroke:none;fill-rule:nonzero;fill:rgb(23.529053%,23.529053%,23.139954%);fill-opacity:1;" d="M 166.726562 208.972656 C 165.441406 208.972656 164.171875 208.394531 163.339844 207.289062 C 161.925781 205.414062 162.292969 202.746094 164.164062 201.332031 L 180.3125 189.09375 C 182.179688 187.675781 184.839844 188.042969 186.253906 189.917969 C 187.667969 191.792969 187.300781 194.457031 185.429688 195.875 L 169.28125 208.113281 C 168.515625 208.695312 167.613281 208.972656 166.726562 208.972656 Z M 166.726562 208.972656 "/>
<path style=" stroke:none;fill-rule:nonzero;fill:rgb(23.529053%,23.529053%,23.139954%);fill-opacity:1;" d="M 186.929688 145.191406 C 184.585938 145.191406 182.6875 143.289062 182.6875 140.941406 L 182.6875 122.667969 C 182.6875 120.320312 184.585938 118.414062 186.929688 118.414062 C 189.273438 118.414062 191.175781 120.320312 191.175781 122.667969 L 191.175781 140.941406 C 191.175781 143.289062 189.273438 145.191406 186.929688 145.191406 Z M 186.929688 145.191406 "/>
<path style=" stroke:none;fill-rule:nonzero;fill:rgb(23.529053%,23.529053%,23.139954%);fill-opacity:1;" d="M 186.929688 257.914062 C 184.585938 257.914062 182.6875 256.011719 182.6875 253.664062 L 182.6875 235.390625 C 182.6875 233.042969 184.585938 231.140625 186.929688 231.140625 C 189.273438 231.140625 191.175781 233.042969 191.175781 235.390625 L 191.175781 253.664062 C 191.175781 256.011719 189.273438 257.914062 186.929688 257.914062 Z M 186.929688 257.914062 "/>
<path style=" stroke:none;fill-rule:nonzero;fill:rgb(23.529053%,23.529053%,23.139954%);fill-opacity:1;" d="M 157.15625 157.949219 C 156.050781 157.949219 154.945312 157.515625 154.113281 156.65625 L 141.421875 143.539062 C 139.789062 141.855469 139.828125 139.164062 141.511719 137.527344 C 143.195312 135.894531 145.878906 135.933594 147.511719 137.621094 L 160.203125 150.734375 C 161.835938 152.421875 161.792969 155.113281 160.113281 156.75 C 159.285156 157.550781 158.222656 157.949219 157.15625 157.949219 Z M 157.15625 157.949219 "/>
<path style=" stroke:none;fill-rule:nonzero;fill:rgb(23.529053%,23.529053%,23.139954%);fill-opacity:1;" d="M 232.15625 238.441406 C 231.050781 238.441406 229.945312 238.007812 229.113281 237.148438 L 216.421875 224.035156 C 214.789062 222.347656 214.832031 219.65625 216.511719 218.023438 C 218.195312 216.390625 220.878906 216.429688 222.511719 218.117188 L 235.203125 231.230469 C 236.835938 232.914062 236.792969 235.605469 235.113281 237.242188 C 234.285156 238.042969 233.222656 238.441406 232.15625 238.441406 Z M 232.15625 238.441406 "/>
<path style=" stroke:none;fill-rule:nonzero;fill:rgb(23.529053%,23.529053%,23.139954%);fill-opacity:1;" d="M 221.925781 160.414062 C 220.820312 160.414062 219.714844 159.984375 218.882812 159.121094 C 217.25 157.4375 217.292969 154.746094 218.972656 153.109375 L 232.058594 140.386719 C 233.742188 138.753906 236.429688 138.792969 238.058594 140.480469 C 239.691406 142.167969 239.648438 144.859375 237.96875 146.492188 L 224.882812 159.214844 C 224.054688 160.015625 222.992188 160.414062 221.925781 160.414062 Z M 221.925781 160.414062 "/>
<path style=" stroke:none;fill-rule:nonzero;fill:rgb(23.529053%,23.529053%,23.139954%);fill-opacity:1;" d="M 141.609375 235.582031 C 140.503906 235.582031 139.394531 235.148438 138.5625 234.289062 C 136.933594 232.601562 136.972656 229.910156 138.65625 228.273438 L 151.742188 215.554688 C 153.425781 213.921875 156.113281 213.960938 157.742188 215.648438 C 159.375 217.332031 159.332031 220.023438 157.652344 221.660156 L 144.5625 234.382812 C 143.738281 235.183594 142.671875 235.582031 141.609375 235.582031 Z M 141.609375 235.582031 "/>
<path style=" stroke:none;fill-rule:nonzero;fill:rgb(23.529053%,23.529053%,23.139954%);fill-opacity:1;" d="M 142.21875 192.417969 L 122.488281 192.417969 C 120.144531 192.417969 118.246094 190.515625 118.246094 188.167969 C 118.246094 185.816406 120.144531 183.914062 122.488281 183.914062 L 142.21875 183.914062 C 144.5625 183.914062 146.460938 185.816406 146.460938 188.167969 C 146.460938 190.515625 144.558594 192.417969 142.21875 192.417969 Z M 142.21875 192.417969 "/>
<path style=" stroke:none;fill-rule:nonzero;fill:rgb(23.529053%,23.529053%,23.139954%);fill-opacity:1;" d="M 251.929688 192.417969 L 232.199219 192.417969 C 229.855469 192.417969 227.957031 190.515625 227.957031 188.167969 C 227.957031 185.816406 229.855469 183.914062 232.199219 183.914062 L 251.929688 183.914062 C 254.273438 183.914062 256.175781 185.816406 256.175781 188.167969 C 256.175781 190.515625 254.273438 192.417969 251.929688 192.417969 Z M 251.929688 192.417969 "/>
<g clip-path="url(#clip1)" clip-rule="nonzero">
<path style=" stroke:none;fill-rule:nonzero;fill:rgb(23.529053%,23.529053%,23.139954%);fill-opacity:1;" d="M 95.304688 304.519531 C 94.527344 304.519531 93.742188 304.308594 93.039062 303.859375 C 23.957031 259.996094 3.363281 167.988281 47.128906 98.757812 C 67.289062 66.863281 98.457031 44.046875 134.886719 34.511719 C 137.160156 33.914062 139.472656 35.277344 140.066406 37.550781 C 140.65625 39.824219 139.300781 42.148438 137.03125 42.742188 C 102.691406 51.730469 73.304688 73.242188 54.296875 103.308594 C 13.035156 168.578125 32.453125 255.320312 97.582031 296.675781 C 99.5625 297.933594 100.148438 300.558594 98.894531 302.542969 C 98.085938 303.820312 96.710938 304.519531 95.304688 304.519531 Z M 95.304688 304.519531 "/>
</g>
<path style=" stroke:none;fill-rule:nonzero;fill:rgb(23.529053%,23.529053%,23.139954%);fill-opacity:1;" d="M 56.578125 310.875 L 107.011719 309.972656 L 97.199219 259.417969 Z M 56.578125 310.875 "/>
<path style=" stroke:none;fill-rule:nonzero;fill:rgb(23.529053%,23.529053%,23.139954%);fill-opacity:1;" d="M 56.578125 315.128906 C 54.96875 315.128906 53.492188 314.214844 52.773438 312.761719 C 52.046875 311.289062 52.230469 309.527344 53.25 308.238281 L 93.871094 256.78125 C 94.898438 255.476562 96.59375 254.894531 98.203125 255.289062 C 99.8125 255.679688 101.046875 256.976562 101.363281 258.605469 L 111.175781 309.160156 C 111.414062 310.394531 111.097656 311.671875 110.308594 312.648438 C 109.519531 313.625 108.339844 314.199219 107.085938 314.226562 L 56.652344 315.128906 C 56.628906 315.128906 56.601562 315.128906 56.578125 315.128906 Z M 94.800781 269.316406 L 65.472656 306.464844 L 101.882812 305.8125 Z M 94.800781 269.316406 "/>
<g clip-path="url(#clip2)" clip-rule="nonzero">
<path style=" stroke:none;fill-rule:nonzero;fill:rgb(23.529053%,23.529053%,23.139954%);fill-opacity:1;" d="M 239.125 341.71875 C 237.238281 341.71875 235.519531 340.449219 235.023438 338.539062 C 234.429688 336.265625 235.789062 333.941406 238.054688 333.347656 C 272.398438 324.359375 301.78125 302.847656 320.789062 272.78125 C 362.050781 207.511719 342.632812 120.765625 277.507812 79.414062 C 275.527344 78.15625 274.9375 75.53125 276.191406 73.546875 C 277.449219 71.5625 280.066406 70.972656 282.046875 72.230469 C 351.128906 116.089844 371.726562 208.101562 327.960938 277.332031 C 307.796875 309.222656 276.628906 332.039062 240.199219 341.578125 C 239.839844 341.671875 239.480469 341.71875 239.125 341.71875 Z M 239.125 341.71875 "/>
</g>
<path style=" stroke:none;fill-rule:nonzero;fill:rgb(23.529053%,23.529053%,23.139954%);fill-opacity:1;" d="M 318.507812 65.214844 L 268.074219 66.117188 L 277.882812 116.671875 Z M 318.507812 65.214844 "/>
<path style=" stroke:none;fill-rule:nonzero;fill:rgb(23.529053%,23.529053%,23.139954%);fill-opacity:1;" d="M 277.886719 120.921875 C 277.550781 120.921875 277.214844 120.882812 276.882812 120.800781 C 275.273438 120.410156 274.035156 119.113281 273.71875 117.484375 L 263.910156 66.929688 C 263.667969 65.695312 263.988281 64.417969 264.777344 63.441406 C 265.566406 62.464844 266.746094 61.886719 267.996094 61.863281 L 318.429688 60.960938 C 320.105469 60.996094 321.582031 61.855469 322.308594 63.328125 C 323.039062 64.800781 322.851562 66.5625 321.835938 67.851562 L 281.210938 119.308594 C 280.398438 120.34375 279.164062 120.921875 277.886719 120.921875 Z M 273.203125 70.277344 L 280.285156 106.773438 L 309.613281 69.625 Z M 273.203125 70.277344 "/>
</g>
</svg>
