<?xml version="1.0" encoding="UTF-8"?>
<svg xmlns="http://www.w3.org/2000/svg" xmlns:xlink="http://www.w3.org/1999/xlink" width="375pt" height="374.999991pt" viewBox="0 0 375 374.999991" version="1.2">
<defs>
<clipPath id="clip1">
  <path d="M 157 5.34375 L 233 5.34375 L 233 31 L 157 31 Z M 157 5.34375 "/>
</clipPath>
<clipPath id="clip2">
  <path d="M 157 65 L 348 65 L 348 369.730469 L 157 369.730469 Z M 157 65 "/>
</clipPath>
</defs>
<g id="surface1">
<path style=" stroke:none;fill-rule:nonzero;fill:rgb(94.898987%,73.329163%,68.629456%);fill-opacity:1;" d="M 195.390625 342.460938 C 180.46875 342.460938 165.878906 339.859375 152.011719 334.730469 C 149.578125 333.828125 148.332031 331.125 149.234375 328.691406 C 150.136719 326.257812 152.839844 325.019531 155.273438 325.914062 C 168.089844 330.65625 181.589844 333.0625 195.390625 333.0625 C 259.15625 333.0625 311.035156 281.1875 311.035156 217.425781 C 311.035156 153.664062 259.15625 101.789062 195.390625 101.789062 C 176.859375 101.789062 159.160156 106.039062 142.785156 114.421875 C 140.476562 115.605469 137.644531 114.691406 136.460938 112.378906 C 135.277344 110.070312 136.191406 107.238281 138.503906 106.054688 C 156.21875 96.988281 175.359375 92.390625 195.390625 92.390625 C 264.339844 92.390625 320.4375 148.480469 320.4375 217.425781 C 320.433594 286.371094 264.335938 342.460938 195.390625 342.460938 Z M 195.390625 342.460938 "/>
<path style=" stroke:none;fill-rule:nonzero;fill:rgb(94.898987%,73.329163%,68.629456%);fill-opacity:1;" d="M 194.269531 135.804688 C 191.671875 135.804688 189.570312 133.703125 189.570312 131.105469 L 189.570312 97.535156 C 189.570312 94.9375 191.671875 92.835938 194.269531 92.835938 C 196.863281 92.835938 198.96875 94.9375 198.96875 97.535156 L 198.96875 131.105469 C 198.96875 133.699219 196.863281 135.804688 194.269531 135.804688 Z M 194.269531 135.804688 "/>
<path style=" stroke:none;fill-rule:nonzero;fill:rgb(94.898987%,73.329163%,68.629456%);fill-opacity:1;" d="M 194.269531 342.460938 C 191.671875 342.460938 189.570312 340.355469 189.570312 337.761719 L 189.570312 304.191406 C 189.570312 301.59375 191.671875 299.488281 194.269531 299.488281 C 196.863281 299.488281 198.96875 301.59375 198.96875 304.191406 L 198.96875 337.761719 C 198.96875 340.355469 196.863281 342.460938 194.269531 342.460938 Z M 194.269531 342.460938 "/>
<path style=" stroke:none;fill-rule:nonzero;fill:rgb(94.898987%,73.329163%,68.629456%);fill-opacity:1;" d="M 277.542969 307.125 C 276.316406 307.125 275.089844 306.648438 274.167969 305.695312 L 250.796875 281.601562 C 248.992188 279.738281 249.035156 276.765625 250.902344 274.957031 C 252.765625 273.152344 255.742188 273.191406 257.546875 275.058594 L 280.917969 299.15625 C 282.726562 301.019531 282.679688 303.992188 280.816406 305.800781 C 279.902344 306.6875 278.722656 307.125 277.542969 307.125 Z M 277.542969 307.125 "/>
<path style=" stroke:none;fill-rule:nonzero;fill:rgb(94.898987%,73.329163%,68.629456%);fill-opacity:1;" d="M 258.703125 163.769531 C 257.476562 163.769531 256.25 163.292969 255.328125 162.339844 C 253.523438 160.476562 253.566406 157.503906 255.433594 155.695312 L 279.527344 132.328125 C 281.390625 130.519531 284.367188 130.5625 286.175781 132.429688 C 287.980469 134.292969 287.9375 137.265625 286.070312 139.074219 L 261.972656 162.441406 C 261.0625 163.332031 259.882812 163.769531 258.703125 163.769531 Z M 258.703125 163.769531 "/>
<path style=" stroke:none;fill-rule:nonzero;fill:rgb(94.898987%,73.329163%,68.629456%);fill-opacity:1;" d="M 313.953125 222.570312 L 277.625 222.570312 C 275.027344 222.570312 272.925781 220.464844 272.925781 217.871094 C 272.925781 215.273438 275.027344 213.167969 277.625 213.167969 L 313.953125 213.167969 C 316.550781 213.167969 318.652344 215.273438 318.652344 217.871094 C 318.652344 220.464844 316.550781 222.570312 313.953125 222.570312 Z M 313.953125 222.570312 "/>
<path style=" stroke:none;fill-rule:nonzero;fill:rgb(94.898987%,73.329163%,68.629456%);fill-opacity:1;" d="M 187.15625 25.988281 L 203.632812 25.988281 L 203.632812 70.542969 L 187.15625 70.542969 Z M 187.15625 25.988281 "/>
<path style=" stroke:none;fill-rule:nonzero;fill:rgb(94.898987%,73.329163%,68.629456%);fill-opacity:1;" d="M 203.632812 75.242188 L 187.15625 75.242188 C 184.558594 75.242188 182.453125 73.136719 182.453125 70.542969 L 182.453125 25.988281 C 182.453125 23.394531 184.558594 21.289062 187.15625 21.289062 L 203.632812 21.289062 C 206.226562 21.289062 208.332031 23.394531 208.332031 25.988281 L 208.332031 70.542969 C 208.332031 73.136719 206.226562 75.242188 203.632812 75.242188 Z M 191.855469 65.839844 L 198.933594 65.839844 L 198.933594 30.691406 L 191.855469 30.691406 Z M 191.855469 65.839844 "/>
<path style=" stroke:none;fill-rule:nonzero;fill:rgb(94.898987%,73.329163%,68.629456%);fill-opacity:1;" d="M 228.265625 18.003906 C 228.265625 22.414062 221.9375 25.988281 214.125 25.988281 L 176.660156 25.988281 C 168.847656 25.988281 162.523438 22.414062 162.523438 18.003906 C 162.523438 13.59375 168.847656 10.019531 176.660156 10.019531 L 214.125 10.019531 C 221.9375 10.019531 228.265625 13.59375 228.265625 18.003906 Z M 228.265625 18.003906 "/>
<g clip-path="url(#clip1)" clip-rule="nonzero">
<path style=" stroke:none;fill-rule:nonzero;fill:rgb(94.898987%,73.329163%,68.629456%);fill-opacity:1;" d="M 214.125 30.691406 L 176.660156 30.691406 C 165.921875 30.691406 157.820312 25.234375 157.820312 18.003906 C 157.820312 10.769531 165.921875 5.320312 176.660156 5.320312 L 214.125 5.320312 C 224.863281 5.320312 232.964844 10.769531 232.964844 18.003906 C 232.964844 25.234375 224.863281 30.691406 214.125 30.691406 Z M 176.660156 14.71875 C 170.605469 14.71875 167.375 17.25 167.222656 18.015625 C 167.371094 18.757812 170.601562 21.289062 176.660156 21.289062 L 214.125 21.289062 C 220.183594 21.289062 223.417969 18.757812 223.566406 17.988281 C 223.414062 17.25 220.175781 14.71875 214.125 14.71875 Z M 176.660156 14.71875 "/>
</g>
<path style=" stroke:none;fill-rule:nonzero;fill:rgb(94.898987%,73.329163%,68.629456%);fill-opacity:1;" d="M 322.65625 72.84375 L 334.480469 84.328125 L 303.4375 116.28125 L 291.617188 104.800781 Z M 322.65625 72.84375 "/>
<path style=" stroke:none;fill-rule:nonzero;fill:rgb(94.898987%,73.329163%,68.629456%);fill-opacity:1;" d="M 303.449219 120.964844 C 302.269531 120.964844 301.089844 120.523438 300.175781 119.632812 L 288.351562 108.148438 C 287.457031 107.28125 286.945312 106.09375 286.925781 104.847656 C 286.90625 103.601562 287.386719 102.398438 288.253906 101.503906 L 319.300781 69.550781 C 321.113281 67.691406 324.085938 67.648438 325.945312 69.453125 L 337.769531 80.933594 C 338.664062 81.804688 339.171875 82.992188 339.191406 84.238281 C 339.210938 85.484375 338.730469 86.6875 337.863281 87.582031 L 306.820312 119.535156 C 305.898438 120.484375 304.671875 120.964844 303.449219 120.964844 Z M 298.273438 104.683594 L 303.351562 109.617188 L 327.84375 84.402344 L 322.765625 79.46875 Z M 298.273438 104.683594 "/>
<path style=" stroke:none;fill-rule:nonzero;fill:rgb(94.898987%,73.329163%,68.629456%);fill-opacity:1;" d="M 357.730469 95.742188 C 354.65625 98.90625 347.625 97.0625 342.019531 91.617188 L 315.148438 65.515625 C 309.542969 60.070312 307.496094 53.097656 310.570312 49.9375 C 313.644531 46.773438 320.671875 48.617188 326.277344 54.058594 L 353.148438 80.164062 C 358.75 85.605469 360.796875 92.578125 357.730469 95.742188 Z M 357.730469 95.742188 "/>
<path style=" stroke:none;fill-rule:nonzero;fill:rgb(94.898987%,73.329163%,68.629456%);fill-opacity:1;" d="M 353.566406 101.988281 C 348.796875 101.988281 343.257812 99.371094 338.742188 94.988281 L 311.871094 68.882812 C 308.585938 65.695312 306.179688 61.898438 305.09375 58.191406 C 303.75 53.617188 304.515625 49.414062 307.199219 46.65625 C 309.085938 44.714844 311.691406 43.6875 314.730469 43.6875 C 319.496094 43.6875 325.03125 46.304688 329.546875 50.6875 L 356.421875 76.789062 C 364.125 84.273438 366.136719 93.828125 361.101562 99.015625 C 359.210938 100.960938 356.605469 101.988281 353.566406 101.988281 Z M 314.730469 53.085938 C 314.230469 53.085938 313.980469 53.183594 313.929688 53.21875 C 313.519531 53.855469 314.078125 57.921875 318.421875 62.140625 L 345.292969 88.246094 C 348.382812 91.246094 351.675781 92.589844 353.566406 92.589844 C 354.070312 92.589844 354.320312 92.492188 354.371094 92.457031 C 354.773438 91.824219 354.210938 87.75 349.867188 83.53125 L 323 57.429688 C 319.910156 54.429688 316.621094 53.085938 314.730469 53.085938 Z M 314.730469 53.085938 "/>
<g clip-path="url(#clip2)" clip-rule="nonzero">
<path style=" stroke:none;fill-rule:nonzero;fill:rgb(54.899597%,52.938843%,42.349243%);fill-opacity:1;" d="M 195.390625 369.453125 C 183.945312 369.453125 172.535156 368.171875 161.476562 365.648438 C 158.945312 365.070312 157.363281 362.550781 157.941406 360.019531 C 158.515625 357.492188 161.027344 355.894531 163.570312 356.484375 C 173.941406 358.851562 184.648438 360.050781 195.390625 360.050781 C 273.917969 360.050781 337.804688 296.171875 337.804688 217.644531 C 337.804688 139.121094 273.917969 75.242188 195.390625 75.242188 C 184.652344 75.242188 173.941406 76.441406 163.566406 78.808594 C 161.035156 79.386719 158.515625 77.804688 157.9375 75.273438 C 157.363281 72.742188 158.945312 70.222656 161.476562 69.644531 C 172.539062 67.121094 183.949219 65.839844 195.390625 65.839844 C 279.101562 65.839844 347.203125 133.941406 347.203125 217.644531 C 347.203125 301.351562 279.101562 369.453125 195.390625 369.453125 Z M 195.390625 369.453125 "/>
</g>
<path style=" stroke:none;fill-rule:nonzero;fill:rgb(54.899597%,52.938843%,42.349243%);fill-opacity:1;" d="M 195.390625 222.34375 C 194.53125 222.34375 193.675781 222.109375 192.921875 221.644531 C 191.535156 220.785156 190.691406 219.273438 190.691406 217.644531 L 190.691406 151.304688 C 190.691406 148.707031 192.792969 146.601562 195.390625 146.601562 C 197.988281 146.601562 200.089844 148.707031 200.089844 151.304688 L 200.089844 210.042969 L 234.828125 192.675781 C 237.152344 191.511719 239.972656 192.457031 241.136719 194.777344 C 242.296875 197.097656 241.351562 199.921875 239.035156 201.082031 L 197.492188 221.847656 C 196.828125 222.179688 196.109375 222.34375 195.390625 222.34375 Z M 195.390625 222.34375 "/>
<path style=" stroke:none;fill-rule:nonzero;fill:rgb(94.898987%,73.329163%,68.629456%);fill-opacity:1;" d="M 122.011719 126.449219 L 80.007812 126.449219 C 77.414062 126.449219 75.308594 124.34375 75.308594 121.75 C 75.308594 119.152344 77.414062 117.050781 80.007812 117.050781 L 122.011719 117.050781 C 124.605469 117.050781 126.710938 119.152344 126.710938 121.75 C 126.710938 124.34375 124.605469 126.449219 122.011719 126.449219 Z M 122.011719 126.449219 "/>
<path style=" stroke:none;fill-rule:nonzero;fill:rgb(94.898987%,73.329163%,68.629456%);fill-opacity:1;" d="M 132.691406 342.902344 L 90.691406 342.902344 C 88.09375 342.902344 85.992188 340.800781 85.992188 338.203125 C 85.992188 335.609375 88.09375 333.503906 90.691406 333.503906 L 132.691406 333.503906 C 135.289062 333.503906 137.394531 335.609375 137.394531 338.203125 C 137.394531 340.800781 135.289062 342.902344 132.691406 342.902344 Z M 132.691406 342.902344 "/>
<path style=" stroke:none;fill-rule:nonzero;fill:rgb(94.898987%,73.329163%,68.629456%);fill-opacity:1;" d="M 87.054688 235.671875 L 16.035156 235.671875 C 13.4375 235.671875 11.332031 233.566406 11.332031 230.972656 C 11.332031 228.375 13.4375 226.273438 16.035156 226.273438 L 87.054688 226.273438 C 89.648438 226.273438 91.753906 228.375 91.753906 230.972656 C 91.753906 233.566406 89.648438 235.671875 87.054688 235.671875 Z M 87.054688 235.671875 "/>
<path style=" stroke:none;fill-rule:nonzero;fill:rgb(94.898987%,73.329163%,68.629456%);fill-opacity:1;" d="M 92.300781 273.914062 L 21.28125 273.914062 C 18.683594 273.914062 16.582031 271.8125 16.582031 269.214844 C 16.582031 266.621094 18.683594 264.515625 21.28125 264.515625 L 92.300781 264.515625 C 94.898438 264.515625 97 266.621094 97 269.214844 C 97 271.8125 94.894531 273.914062 92.300781 273.914062 Z M 92.300781 273.914062 "/>
<path style=" stroke:none;fill-rule:nonzero;fill:rgb(94.898987%,73.329163%,68.629456%);fill-opacity:1;" d="M 113.300781 311.746094 L 42.28125 311.746094 C 39.683594 311.746094 37.582031 309.640625 37.582031 307.046875 C 37.582031 304.449219 39.683594 302.34375 42.28125 302.34375 L 113.300781 302.34375 C 115.894531 302.34375 118 304.449219 118 307.046875 C 118 309.640625 115.894531 311.746094 113.300781 311.746094 Z M 113.300781 311.746094 "/>
<path style=" stroke:none;fill-rule:nonzero;fill:rgb(94.898987%,73.329163%,68.629456%);fill-opacity:1;" d="M 101.011719 159.238281 L 34.160156 159.238281 C 31.566406 159.238281 29.460938 157.136719 29.460938 154.539062 C 29.460938 151.945312 31.566406 149.839844 34.160156 149.839844 L 101.011719 149.839844 C 103.605469 149.839844 105.710938 151.945312 105.710938 154.539062 C 105.710938 157.136719 103.605469 159.238281 101.011719 159.238281 Z M 101.011719 159.238281 "/>
<path style=" stroke:none;fill-rule:nonzero;fill:rgb(94.898987%,73.329163%,68.629456%);fill-opacity:1;" d="M 89.332031 196.390625 L 13.75 196.390625 C 11.15625 196.390625 9.050781 194.285156 9.050781 191.691406 C 9.050781 189.09375 11.15625 186.992188 13.75 186.992188 L 89.332031 186.992188 C 91.929688 186.992188 94.03125 189.09375 94.03125 191.691406 C 94.03125 194.285156 91.929688 196.390625 89.332031 196.390625 Z M 89.332031 196.390625 "/>
</g>
</svg>
