<?xml version="1.0" encoding="UTF-8"?>
<svg xmlns="http://www.w3.org/2000/svg" xmlns:xlink="http://www.w3.org/1999/xlink" width="375pt" height="374.999991pt" viewBox="0 0 375 374.999991" version="1.2">
<defs>
<clipPath id="clip1">
  <path d="M 157 5.34375 L 233 5.34375 L 233 31 L 157 31 Z M 157 5.34375 "/>
</clipPath>
<clipPath id="clip2">
  <path d="M 157 65 L 348 65 L 348 369.695312 L 157 369.695312 Z M 157 65 "/>
</clipPath>
</defs>
<g id="surface1">
<path style=" stroke:none;fill-rule:nonzero;fill:rgb(23.529053%,23.529053%,23.139954%);fill-opacity:1;" d="M 195.375 342.425781 C 180.457031 342.425781 165.867188 339.824219 152.003906 334.699219 C 149.570312 333.796875 148.324219 331.09375 149.226562 328.660156 C 150.125 326.226562 152.828125 324.988281 155.261719 325.882812 C 168.078125 330.625 181.578125 333.027344 195.375 333.027344 C 259.140625 333.027344 311.015625 281.160156 311.015625 217.40625 C 311.015625 153.648438 259.140625 101.78125 195.375 101.78125 C 176.847656 101.78125 159.152344 106.03125 142.777344 114.410156 C 140.46875 115.59375 137.636719 114.679688 136.453125 112.371094 C 135.269531 110.058594 136.183594 107.230469 138.496094 106.042969 C 156.207031 96.980469 175.347656 92.378906 195.378906 92.378906 C 264.324219 92.378906 320.417969 148.46875 320.417969 217.40625 C 320.414062 286.34375 264.320312 342.425781 195.375 342.425781 Z M 195.375 342.425781 "/>
<path style=" stroke:none;fill-rule:nonzero;fill:rgb(23.529053%,23.529053%,23.139954%);fill-opacity:1;" d="M 194.257812 135.792969 C 191.660156 135.792969 189.554688 133.6875 189.554688 131.09375 L 189.554688 97.527344 C 189.554688 94.929688 191.660156 92.828125 194.257812 92.828125 C 196.851562 92.828125 198.957031 94.929688 198.957031 97.527344 L 198.957031 131.09375 C 198.957031 133.6875 196.851562 135.792969 194.257812 135.792969 Z M 194.257812 135.792969 "/>
<path style=" stroke:none;fill-rule:nonzero;fill:rgb(23.529053%,23.529053%,23.139954%);fill-opacity:1;" d="M 194.257812 342.425781 C 191.660156 342.425781 189.554688 340.324219 189.554688 337.726562 L 189.554688 304.160156 C 189.554688 301.566406 191.660156 299.460938 194.257812 299.460938 C 196.851562 299.460938 198.957031 301.566406 198.957031 304.160156 L 198.957031 337.726562 C 198.957031 340.324219 196.851562 342.425781 194.257812 342.425781 Z M 194.257812 342.425781 "/>
<path style=" stroke:none;fill-rule:nonzero;fill:rgb(23.529053%,23.529053%,23.139954%);fill-opacity:1;" d="M 277.527344 307.097656 C 276.300781 307.097656 275.074219 306.621094 274.152344 305.667969 L 250.78125 281.574219 C 248.976562 279.710938 249.019531 276.738281 250.886719 274.929688 C 252.75 273.125 255.726562 273.167969 257.53125 275.03125 L 280.898438 299.125 C 282.707031 300.988281 282.660156 303.964844 280.796875 305.773438 C 279.886719 306.65625 278.703125 307.097656 277.527344 307.097656 Z M 277.527344 307.097656 "/>
<path style=" stroke:none;fill-rule:nonzero;fill:rgb(23.529053%,23.529053%,23.139954%);fill-opacity:1;" d="M 258.6875 163.753906 C 257.460938 163.753906 256.234375 163.277344 255.3125 162.328125 C 253.507812 160.464844 253.550781 157.488281 255.414062 155.679688 L 279.511719 132.316406 C 281.371094 130.507812 284.351562 130.550781 286.15625 132.417969 C 287.960938 134.277344 287.917969 137.253906 286.054688 139.0625 L 261.957031 162.429688 C 261.046875 163.316406 259.867188 163.753906 258.6875 163.753906 Z M 258.6875 163.753906 "/>
<path style=" stroke:none;fill-rule:nonzero;fill:rgb(23.529053%,23.529053%,23.139954%);fill-opacity:1;" d="M 313.933594 222.546875 L 277.605469 222.546875 C 275.011719 222.546875 272.90625 220.445312 272.90625 217.847656 C 272.90625 215.253906 275.011719 213.148438 277.605469 213.148438 L 313.933594 213.148438 C 316.53125 213.148438 318.632812 215.253906 318.632812 217.847656 C 318.632812 220.445312 316.53125 222.546875 313.933594 222.546875 Z M 313.933594 222.546875 "/>
<path style=" stroke:none;fill-rule:nonzero;fill:rgb(23.529053%,23.529053%,23.139954%);fill-opacity:1;" d="M 187.144531 25.988281 L 203.621094 25.988281 L 203.621094 70.535156 L 187.144531 70.535156 Z M 187.144531 25.988281 "/>
<path style=" stroke:none;fill-rule:nonzero;fill:rgb(23.529053%,23.529053%,23.139954%);fill-opacity:1;" d="M 203.621094 75.234375 L 187.144531 75.234375 C 184.546875 75.234375 182.441406 73.128906 182.441406 70.535156 L 182.441406 25.988281 C 182.441406 23.390625 184.546875 21.289062 187.144531 21.289062 L 203.621094 21.289062 C 206.214844 21.289062 208.320312 23.390625 208.320312 25.988281 L 208.320312 70.535156 C 208.320312 73.128906 206.214844 75.234375 203.621094 75.234375 Z M 191.84375 65.835938 L 198.921875 65.835938 L 198.921875 30.6875 L 191.84375 30.6875 Z M 191.84375 65.835938 "/>
<path style=" stroke:none;fill-rule:nonzero;fill:rgb(23.529053%,23.529053%,23.139954%);fill-opacity:1;" d="M 228.25 18 C 228.25 22.414062 221.921875 25.984375 214.109375 25.984375 L 176.648438 25.984375 C 168.835938 25.984375 162.511719 22.410156 162.511719 18 C 162.511719 13.589844 168.835938 10.019531 176.648438 10.019531 L 214.109375 10.019531 C 221.921875 10.019531 228.25 13.589844 228.25 18 Z M 228.25 18 "/>
<g clip-path="url(#clip1)" clip-rule="nonzero">
<path style=" stroke:none;fill-rule:nonzero;fill:rgb(23.529053%,23.529053%,23.139954%);fill-opacity:1;" d="M 214.109375 30.6875 L 176.648438 30.6875 C 165.910156 30.6875 157.8125 25.234375 157.8125 18 C 157.8125 10.769531 165.910156 5.320312 176.648438 5.320312 L 214.109375 5.320312 C 224.851562 5.320312 232.949219 10.769531 232.949219 18 C 232.949219 25.230469 224.851562 30.6875 214.109375 30.6875 Z M 176.648438 14.71875 C 170.597656 14.71875 167.363281 17.246094 167.210938 18.015625 C 167.359375 18.757812 170.589844 21.289062 176.648438 21.289062 L 214.113281 21.289062 C 220.167969 21.289062 223.402344 18.757812 223.554688 17.988281 C 223.402344 17.25 220.160156 14.71875 214.113281 14.71875 Z M 176.648438 14.71875 "/>
</g>
<path style=" stroke:none;fill-rule:nonzero;fill:rgb(23.529053%,23.529053%,23.139954%);fill-opacity:1;" d="M 322.636719 72.835938 L 334.457031 84.320312 L 303.417969 116.273438 L 291.597656 104.789062 Z M 322.636719 72.835938 "/>
<path style=" stroke:none;fill-rule:nonzero;fill:rgb(23.529053%,23.529053%,23.139954%);fill-opacity:1;" d="M 303.429688 120.953125 C 302.25 120.953125 301.070312 120.511719 300.15625 119.625 L 288.332031 108.140625 C 287.4375 107.273438 286.925781 106.082031 286.910156 104.835938 C 286.890625 103.589844 287.367188 102.386719 288.238281 101.496094 L 319.28125 69.542969 C 321.089844 67.683594 324.066406 67.640625 325.925781 69.449219 L 337.746094 80.929688 C 338.640625 81.796875 339.152344 82.984375 339.171875 84.230469 C 339.191406 85.476562 338.710938 86.679688 337.84375 87.574219 L 306.800781 119.527344 C 305.878906 120.476562 304.652344 120.953125 303.429688 120.953125 Z M 298.253906 104.671875 L 303.332031 109.605469 L 327.824219 84.394531 L 322.746094 79.460938 Z M 298.253906 104.671875 "/>
<path style=" stroke:none;fill-rule:nonzero;fill:rgb(23.529053%,23.529053%,23.139954%);fill-opacity:1;" d="M 357.707031 95.734375 C 354.632812 98.898438 347.601562 97.054688 341.996094 91.609375 L 315.128906 65.507812 C 309.523438 60.0625 307.476562 53.09375 310.550781 49.929688 C 313.625 46.769531 320.652344 48.613281 326.257812 54.054688 L 353.125 80.15625 C 358.726562 85.597656 360.777344 92.570312 357.707031 95.734375 Z M 357.707031 95.734375 "/>
<path style=" stroke:none;fill-rule:nonzero;fill:rgb(23.529053%,23.529053%,23.139954%);fill-opacity:1;" d="M 353.542969 101.980469 C 348.773438 101.980469 343.234375 99.363281 338.722656 94.980469 L 311.851562 68.878906 C 308.566406 65.6875 306.160156 61.890625 305.074219 58.183594 C 303.730469 53.613281 304.496094 49.410156 307.179688 46.652344 C 309.066406 44.710938 311.671875 43.683594 314.707031 43.683594 C 319.472656 43.683594 325.011719 46.300781 329.527344 50.679688 L 356.398438 76.78125 C 364.101562 84.265625 366.113281 93.820312 361.078125 99.007812 C 359.1875 100.953125 356.582031 101.980469 353.542969 101.980469 Z M 314.707031 53.082031 C 314.207031 53.082031 313.957031 53.179688 313.90625 53.214844 C 313.5 53.847656 314.058594 57.917969 318.402344 62.136719 L 345.269531 88.238281 C 348.359375 91.238281 351.652344 92.582031 353.542969 92.582031 C 354.046875 92.582031 354.296875 92.484375 354.347656 92.449219 C 354.75 91.816406 354.1875 87.742188 349.847656 83.527344 L 322.976562 57.425781 C 319.890625 54.425781 316.601562 53.082031 314.707031 53.082031 Z M 314.707031 53.082031 "/>
<g clip-path="url(#clip2)" clip-rule="nonzero">
<path style=" stroke:none;fill-rule:nonzero;fill:rgb(16.079712%,67.059326%,89.019775%);fill-opacity:1;" d="M 195.378906 369.417969 C 183.933594 369.417969 172.527344 368.136719 161.464844 365.613281 C 158.9375 365.035156 157.351562 362.519531 157.929688 359.984375 C 158.507812 357.457031 161.015625 355.863281 163.558594 356.449219 C 173.929688 358.820312 184.636719 360.019531 195.378906 360.019531 C 273.898438 360.019531 337.785156 296.140625 337.785156 217.625 C 337.785156 139.109375 273.902344 75.234375 195.378906 75.234375 C 184.640625 75.234375 173.929688 76.433594 163.554688 78.800781 C 161.027344 79.378906 158.503906 77.796875 157.929688 75.265625 C 157.351562 72.734375 158.933594 70.214844 161.464844 69.636719 C 172.527344 67.117188 183.9375 65.835938 195.378906 65.835938 C 279.082031 65.835938 347.183594 133.929688 347.183594 217.625 C 347.183594 301.324219 279.085938 369.417969 195.378906 369.417969 Z M 195.378906 369.417969 "/>
</g>
<path style=" stroke:none;fill-rule:nonzero;fill:rgb(16.079712%,67.059326%,89.019775%);fill-opacity:1;" d="M 195.378906 222.324219 C 194.519531 222.324219 193.660156 222.089844 192.910156 221.625 C 191.523438 220.765625 190.679688 219.253906 190.679688 217.625 L 190.679688 151.289062 C 190.679688 148.691406 192.78125 146.589844 195.378906 146.589844 C 197.972656 146.589844 200.078125 148.691406 200.078125 151.289062 L 200.078125 210.023438 L 234.816406 192.65625 C 237.136719 191.496094 239.957031 192.4375 241.121094 194.757812 C 242.28125 197.078125 241.335938 199.902344 239.019531 201.0625 L 197.476562 221.828125 C 196.816406 222.160156 196.097656 222.324219 195.378906 222.324219 Z M 195.378906 222.324219 "/>
<path style=" stroke:none;fill-rule:nonzero;fill:rgb(23.529053%,23.529053%,23.139954%);fill-opacity:1;" d="M 122.003906 126.4375 L 80.003906 126.4375 C 77.410156 126.4375 75.304688 124.332031 75.304688 121.738281 C 75.304688 119.140625 77.410156 117.039062 80.003906 117.039062 L 122.003906 117.039062 C 124.597656 117.039062 126.703125 119.140625 126.703125 121.738281 C 126.703125 124.332031 124.597656 126.4375 122.003906 126.4375 Z M 122.003906 126.4375 "/>
<path style=" stroke:none;fill-rule:nonzero;fill:rgb(23.529053%,23.529053%,23.139954%);fill-opacity:1;" d="M 132.683594 342.871094 L 90.6875 342.871094 C 88.089844 342.871094 85.988281 340.769531 85.988281 338.171875 C 85.988281 335.574219 88.089844 333.472656 90.6875 333.472656 L 132.683594 333.472656 C 135.28125 333.472656 137.382812 335.574219 137.382812 338.171875 C 137.382812 340.769531 135.28125 342.871094 132.683594 342.871094 Z M 132.683594 342.871094 "/>
<path style=" stroke:none;fill-rule:nonzero;fill:rgb(23.529053%,23.529053%,23.139954%);fill-opacity:1;" d="M 87.046875 235.648438 L 16.03125 235.648438 C 13.4375 235.648438 11.332031 233.546875 11.332031 230.949219 C 11.332031 228.355469 13.4375 226.25 16.03125 226.25 L 87.046875 226.25 C 89.644531 226.25 91.746094 228.355469 91.746094 230.949219 C 91.746094 233.546875 89.640625 235.648438 87.046875 235.648438 Z M 87.046875 235.648438 "/>
<path style=" stroke:none;fill-rule:nonzero;fill:rgb(23.529053%,23.529053%,23.139954%);fill-opacity:1;" d="M 92.296875 273.890625 L 21.28125 273.890625 C 18.683594 273.890625 16.578125 271.785156 16.578125 269.191406 C 16.578125 266.59375 18.683594 264.492188 21.28125 264.492188 L 92.296875 264.492188 C 94.890625 264.492188 96.996094 266.59375 96.996094 269.191406 C 96.996094 271.785156 94.890625 273.890625 92.296875 273.890625 Z M 92.296875 273.890625 "/>
<path style=" stroke:none;fill-rule:nonzero;fill:rgb(23.529053%,23.529053%,23.139954%);fill-opacity:1;" d="M 113.292969 311.714844 L 42.277344 311.714844 C 39.683594 311.714844 37.578125 309.613281 37.578125 307.015625 C 37.578125 304.421875 39.683594 302.316406 42.277344 302.316406 L 113.292969 302.316406 C 115.886719 302.316406 117.992188 304.421875 117.992188 307.015625 C 117.992188 309.613281 115.886719 311.714844 113.292969 311.714844 Z M 113.292969 311.714844 "/>
<path style=" stroke:none;fill-rule:nonzero;fill:rgb(23.529053%,23.529053%,23.139954%);fill-opacity:1;" d="M 101.003906 159.226562 L 34.160156 159.226562 C 31.5625 159.226562 29.460938 157.121094 29.460938 154.527344 C 29.460938 151.929688 31.5625 149.828125 34.160156 149.828125 L 101.003906 149.828125 C 103.601562 149.828125 105.703125 151.929688 105.703125 154.527344 C 105.703125 157.121094 103.601562 159.226562 101.003906 159.226562 Z M 101.003906 159.226562 "/>
<path style=" stroke:none;fill-rule:nonzero;fill:rgb(23.529053%,23.529053%,23.139954%);fill-opacity:1;" d="M 89.328125 196.371094 L 13.75 196.371094 C 11.15625 196.371094 9.050781 194.269531 9.050781 191.671875 C 9.050781 189.078125 11.15625 186.972656 13.75 186.972656 L 89.328125 186.972656 C 91.921875 186.972656 94.027344 189.078125 94.027344 191.671875 C 94.027344 194.269531 91.921875 196.371094 89.328125 196.371094 Z M 89.328125 196.371094 "/>
</g>
</svg>
